<?xml version="1.0" encoding="UTF-8"?>
<svg id="Layer_2" data-name="Layer 2" xmlns="http://www.w3.org/2000/svg" viewBox="0 0 2834.6 1133.9">
  <defs>
    <style>
      .cls-1 {
        letter-spacing: .05em;
      }

      .cls-2 {
        font-family: Orbitron-Black, Orbitron;
        font-size: 160px;
        font-weight: 800;
      }

      .cls-2, .cls-3 {
        fill: #fff;
        stroke: #000;
      }

      .cls-4 {
        letter-spacing: .05em;
      }

      .cls-5 {
        letter-spacing: .02em;
      }

      .cls-6 {
        letter-spacing: .05em;
      }

      .cls-3 {
        stroke-miterlimit: 10;
      }

      .cls-7 {
        letter-spacing: .08em;
      }

      .cls-8 {
        letter-spacing: .02em;
      }
    </style>
  </defs>
  <polygon class="cls-3" points="464.86 152.86 39.78 153.04 39.78 53.04 464.86 53.23 464.86 101.54 453.64 101.57 453.64 64.71 51.6 65.29 51.7 141.36 453.6 141.29 453.64 101.57 464.86 101.54 464.86 152.86"/>
  <polygon class="cls-3" points="465.67 278.91 40.59 279.09 40.59 179.09 465.67 179.28 465.67 227.58 454.45 227.61 454.45 190.76 52.41 191.34 52.51 267.41 454.41 267.34 454.45 227.61 465.67 227.58 465.67 278.91"/>
  <polygon class="cls-3" points="465.67 404.95 40.59 405.14 40.59 305.14 465.67 305.33 465.67 353.63 454.45 353.66 454.45 316.81 52.41 317.39 52.51 393.46 454.41 393.38 454.45 353.66 465.67 353.63 465.67 404.95"/>
  <polygon class="cls-3" points="933.54 408.04 508.46 408.22 508.46 308.22 933.54 308.41 933.54 356.71 922.32 356.74 922.32 319.89 520.27 320.47 520.37 396.54 922.27 396.47 922.32 356.74 933.54 356.71 933.54 408.04"/>
  <polygon class="cls-3" points="1859.5 277.56 1434.42 277.74 1434.42 177.74 1859.5 177.93 1859.5 226.23 1848.28 226.27 1848.28 189.41 1446.24 189.99 1446.34 266.06 1848.24 265.99 1848.28 226.27 1859.5 226.23 1859.5 277.56"/>
  <polygon class="cls-3" points="1859.5 404.53 1434.42 404.71 1434.42 304.71 1859.5 304.9 1859.5 353.2 1848.28 353.24 1848.28 316.38 1446.24 316.96 1446.34 393.03 1848.24 392.96 1848.28 353.24 1859.5 353.2 1859.5 404.53"/>
  <polygon class="cls-3" points="2326.6 404.53 1901.52 404.71 1901.52 304.71 2326.6 304.9 2326.6 353.2 2315.38 353.24 2315.38 316.38 1913.33 316.96 1913.43 393.03 2315.33 392.96 2315.38 353.24 2326.6 353.2 2326.6 404.53"/>
  <polygon class="cls-3" points="2326.6 532.84 1901.52 533.03 1901.52 433.03 2326.6 433.22 2326.6 481.52 2315.38 481.55 2315.38 444.7 1913.33 445.28 1913.43 521.35 2315.33 521.27 2315.38 481.55 2326.6 481.52 2326.6 532.84"/>
  <polygon class="cls-3" points="2792.86 532.84 2367.78 533.03 2367.78 433.03 2792.86 433.22 2792.86 481.52 2781.64 481.55 2781.64 444.7 2379.6 445.28 2379.7 521.35 2781.6 521.27 2781.64 481.55 2792.86 481.52 2792.86 532.84"/>
  <polygon class="cls-3" points="2792.86 404.53 2367.78 404.71 2367.78 304.71 2792.86 304.9 2792.86 353.2 2781.64 353.24 2781.64 316.38 2379.6 316.96 2379.7 393.03 2781.6 392.96 2781.64 353.24 2792.86 353.2 2792.86 404.53"/>
  <polygon class="cls-3" points="2792.86 279.2 2367.78 279.39 2367.78 179.39 2792.86 179.57 2792.86 227.88 2781.64 227.91 2781.64 191.05 2379.6 191.63 2379.7 267.7 2781.6 267.63 2781.64 227.91 2792.86 227.88 2792.86 279.2"/>
  <polygon class="cls-3" points="2792.86 153.87 2367.78 154.06 2367.78 54.06 2792.86 54.25 2792.86 102.55 2781.64 102.58 2781.64 65.73 2379.6 66.31 2379.7 142.38 2781.6 142.3 2781.64 102.58 2792.86 102.55 2792.86 153.87"/>
  <polygon class="cls-3" points="2792.86 950.81 2367.78 950.99 2367.78 850.99 2792.86 851.18 2792.86 899.48 2781.64 899.51 2781.64 862.66 2379.6 863.24 2379.7 939.31 2781.6 939.24 2781.64 899.51 2792.86 899.48 2792.86 950.81"/>
  <polygon class="cls-3" points="465.16 950.81 40.08 950.99 40.08 850.99 465.16 851.18 465.16 899.48 453.94 899.51 453.94 862.66 51.89 863.24 51.99 939.31 453.89 939.24 453.94 899.51 465.16 899.48 465.16 950.81"/>
  <path class="cls-3" d="m61.52,529.31h404.15v-96.02H207.04c-23.43,2.81-88.7,13.91-128.79,67.52-7.08,9.46-12.52,19.12-16.73,28.51Z"/>
  <path class="cls-3" d="m373.66,793.42h92.02v-225.14h-93.15l.23,45.73-230.27.65c-.02-5.75.6-14.02,3.59-23.43,3.31-10.43,8.21-18.12,11.85-22.95H50.02c-1.41,2.98-3.42,7.59-5.23,13.41,0,0-3.5,11.31-4.38,24.07-1,14.49-1.3,87.08.19,186.34l102.78.2.2-87.85,229.64,1.11.44,87.85Z"/>
  <rect class="cls-3" x="975.6" y="434.01" width="416.76" height="98.04"/>
  <path class="cls-3" d="m1247.17,792.39h-271.57v-225.44h97.69v133.8l151.43,1.77c4.99-.12,27.21-1.22,45.74-19.17,18.41-17.82,20.31-39.79,20.61-44.81-.02-23.86-.03-47.72-.05-71.58h101.33v68c-.21,15.6-2.89,54.23-29.58,91.42-40.7,56.71-104.79,64.83-115.62,66.02Z"/>
  <rect class="cls-3" x="508.46" y="568.28" width="85.44" height="225.14"/>
  <path class="cls-3" d="m933.54,793.57h-98.04c-79.7-149.29-171.42-197.75-230.84-215.7-3.58-1.08-7.16-2.09-10.76-3.02v-5.39h189.61c15.17,12.92,32.23,31.2,45.36,56.21,2.5,4.77,4.7,9.46,6.62,14.04v-71.58h98.04v225.44Z"/>
  <path class="cls-3" d="m751.44,528.3h-242.99v-96.02h76.08c23.46,8.31,50.24,19.64,78.67,35.25,36.28,19.93,65.56,41.53,88.23,60.77Z"/>
  <rect class="cls-3" x="835.49" y="431.27" width="98.04" height="98.04"/>
  <rect class="cls-3" x="1434.42" y="434.01" width="104.74" height="98.04"/>
  <rect class="cls-3" x="1754.77" y="434.01" width="104.74" height="98.04"/>
  <path class="cls-3" d="m1434.42,566.95c-.36,5.45-2.12,41.66,26.17,69.79,25.74,25.59,57.8,26.03,63.93,25.99h77.08v129.66h88.73v-128.76h77.08c5.96-.03,39.75-.76,66.32-28.38,26.96-28.02,26.03-62.43,25.77-68.29h-127.35c.09.41.64,3.15-1.2,5.56-2.25,2.94-5.97,2.61-6.17,2.59-52.96.21-105.92.42-158.87.63-2.83.65-5.73-.4-7.33-2.62-1.94-2.7-1.01-5.8-.9-6.15h-123.26Z"/>
  <polygon class="cls-3" points="2095.59 654.07 2095.59 791.49 2058.9 791.49 2059 665.92 2037.24 621.5 2000.44 621.5 2018.04 659.85 2017.77 791.49 1981.82 791.49 1981.32 668.7 1957.92 621.5 1937.45 621.5 1937.55 791.49 1899.96 791.49 1901.52 566.95 2053.02 566.95 2095.59 654.07"/>
  <path class="cls-3" d="m2271.22,684.99c-.13,1.06-.61,3.71-2.7,6.22-2.09,2.51-4.61,3.46-5.63,3.78h-116.02l.02-34.67,97.81-.21-.06-38.91h-97.74l-.04,73.79-.2,30.17c.04.8.27,2.81,1.74,4.68,2.2,2.8,5.46,3.09,6.02,3.14,35.02-.09,70.03-.18,105.05-.27l12.81,28.01v22.11c-.12.76-.69,3.71-3.39,5.98-2.65,2.23-5.59,2.32-6.37,2.32h-138.35l-12.82-27.71v-196.46h147.19l12.66,13.92v104.12Z"/>
  <path class="cls-3" d="m2449.17,581.47l-7.02-14.52h-28.53l-.5,87.3-.63,78.39h-82.8l.03-34.78h83.05l.35-43.61-106.75.11c-1.04.13-6.47.9-10.16,5.78-2.83,3.74-2.99,7.72-2.99,9.06v96.07l12.55,25.84h132.65c.75-.03,4.89-.25,7.97-3.71,2.5-2.81,2.75-6.02,2.79-6.97v-198.97Z"/>
  <path class="cls-3" d="m2611.24,621.7h-55.85l.33,110.74h53.58l9.67,20.12v31.87c-.09.75-.4,2.43-1.71,3.98-2.07,2.47-5.03,2.68-5.58,2.71h-140.19l-10.28-20.84v-37.84h67.42l-.27-110.74h-52.9l-10.76-21.71v-33.04h146.39l7.88,19.15v28.53c0,.71-.11,2.6-1.46,4.33-2.24,2.89-5.9,2.76-6.27,2.74Z"/>
  <path class="cls-3" d="m2646.95,659.96l23.6.16c-.01.22-.04,1.19.67,2.05.73.9,1.73,1.04,1.94,1.07,1.01.04,5.63.21,9.22-.05.61-.04,1.63-.13,2.43-.88.83-.77,1-1.85,1.05-2.43,18.69.11,37.38.22,56.07.32.04.46.22,1.58,1.07,2.66.93,1.18,2.11,1.59,2.54,1.72,3.95,0,7.89.01,11.84.02l.11,33.17-81.26,1.08-.34,33.65h81.71l-.36-110.28-84.99.05-.1,9.46c-.12.54-.45,1.69-1.44,2.74-1.4,1.47-3.15,1.7-3.63,1.74-10.09-.08-20.18-.17-30.27-.25v-69.04h137.58l18.5,37.52v176.76c-.07.93-.42,3.8-2.71,6.37-2.52,2.83-5.7,3.39-6.57,3.51h-132.75l-14.04-29.5v-92.32c-.03-.55-.13-4.12,2.69-6.87,3.05-2.98,6.98-2.54,7.47-2.47Z"/>
  <text class="cls-2" transform="translate(514.06 943.79)"><tspan class="cls-1" x="0" y="0">E</tspan><tspan class="cls-8" x="130.56" y="0">v</tspan><tspan class="cls-1" x="260.16" y="0">ent P</tspan><tspan class="cls-6" x="772.47" y="0">r</tspan><tspan class="cls-4" x="865.43" y="0">o Ren</tspan><tspan class="cls-7" x="1421.74" y="0">t</tspan><tspan class="cls-5" x="1506.7" y="0">a</tspan><tspan class="cls-1" x="1621.42" y="0">ls</tspan></text>
</svg>